<mxfile host="app.diagrams.net" agent="Mozilla/5.0 (Windows NT 10.0; Win64; x64) AppleWebKit/537.36 (KHTML, like Gecko) Chrome/144.0.0.0 Safari/537.36" version="28.2.8">
  <diagram name="Page-1" id="Pu8QbG-_TaYI10EMsj-9">
    <mxGraphModel dx="1231" dy="728" grid="0" gridSize="10" guides="1" tooltips="1" connect="1" arrows="1" fold="1" page="1" pageScale="1" pageWidth="850" pageHeight="1100" math="0" shadow="0">
      <root>
        <mxCell id="0" />
        <mxCell id="1" parent="0" />
        <mxCell id="QrWIPEEY__fYpDPrl-_q-1" value="&lt;div style=&quot;text-align: left;&quot;&gt;&lt;font style=&quot;font-size: 14px;&quot;&gt;&lt;b&gt;[BS]&lt;/b&gt; 可学习导频&lt;/font&gt;&lt;/div&gt;&lt;div style=&quot;text-align: left;&quot;&gt;&lt;font style=&quot;font-size: 18px;&quot;&gt;&lt;b&gt;PDN: &lt;i&gt;X̃&lt;/i&gt;&lt;/b&gt;&lt;/font&gt;&lt;/div&gt;" style="rounded=1;whiteSpace=wrap;html=1;fillColor=#dae8fc;strokeColor=#6c8ebf;" parent="1" vertex="1">
          <mxGeometry x="30" y="460" width="140" height="70" as="geometry" />
        </mxCell>
        <mxCell id="QrWIPEEY__fYpDPrl-_q-2" value="&lt;div style=&quot;text-align: left;&quot;&gt;&lt;font style=&quot;font-size: 14px;&quot;&gt;&lt;b&gt;[UE]&lt;/b&gt; 编码器&lt;/font&gt;&lt;/div&gt;&lt;div style=&quot;text-align: left;&quot;&gt;&lt;font style=&quot;font-size: 18px;&quot;&gt;&lt;b&gt;AGFN: &lt;i&gt;F&lt;/i&gt;&lt;sub&gt;enc&lt;/sub&gt;&lt;/b&gt;&lt;/font&gt;&lt;/div&gt;" style="rounded=1;whiteSpace=wrap;html=1;fillColor=#d5e8d4;strokeColor=#82b366;" parent="1" vertex="1">
          <mxGeometry x="240" y="460" width="140" height="70" as="geometry" />
        </mxCell>
        <mxCell id="QrWIPEEY__fYpDPrl-_q-3" value="&lt;div style=&quot;text-align: left;&quot;&gt;&lt;font style=&quot;font-size: 14px;&quot;&gt;&lt;b&gt;[BS]&lt;/b&gt; 解码器&lt;/font&gt;&lt;/div&gt;&lt;div style=&quot;text-align: left;&quot;&gt;&lt;font style=&quot;font-size: 18px;&quot;&gt;&lt;b&gt;THBN: &lt;i&gt;F&lt;/i&gt;&lt;sub&gt;dec&lt;/sub&gt;&lt;/b&gt;&lt;/font&gt;&lt;/div&gt;" style="rounded=1;whiteSpace=wrap;html=1;fillColor=#dae8fc;strokeColor=#6c8ebf;" parent="1" vertex="1">
          <mxGeometry x="450" y="460" width="140" height="70" as="geometry" />
        </mxCell>
        <mxCell id="QrWIPEEY__fYpDPrl-_q-4" value="&lt;div style=&quot;text-align: left;&quot;&gt;&lt;font style=&quot;font-size: 14px;&quot;&gt;[BS] 生成预编码&lt;/font&gt;&lt;/div&gt;&lt;div style=&quot;text-align: left;&quot;&gt;&lt;font style=&quot;font-size: 18px;&quot;&gt;&lt;b&gt;&lt;i&gt;V&lt;/i&gt;&lt;sub&gt;RF&lt;/sub&gt;, &lt;i&gt;V&lt;/i&gt;&lt;sub&gt;Dig&lt;/sub&gt;&lt;/b&gt;&lt;/font&gt;&lt;/div&gt;" style="rounded=1;whiteSpace=wrap;html=1;fillColor=#dae8fc;strokeColor=#6c8ebf;" parent="1" vertex="1">
          <mxGeometry x="660" y="460" width="140" height="70" as="geometry" />
        </mxCell>
        <mxCell id="QrWIPEEY__fYpDPrl-_q-5" value="下行信道&lt;i&gt; H[n]&lt;/i&gt;&lt;br&gt;接收信号 &lt;i&gt;Ỹ&lt;sub&gt;k&lt;/sub&gt;&lt;/i&gt;" style="endArrow=classic;html=1;rounded=0;entryX=0;entryY=0.5;entryDx=0;entryDy=0;exitX=1;exitY=0.5;exitDx=0;exitDy=0;" parent="1" source="QrWIPEEY__fYpDPrl-_q-1" target="QrWIPEEY__fYpDPrl-_q-2" edge="1">
          <mxGeometry width="50" height="50" relative="1" as="geometry">
            <mxPoint x="170" y="205" as="sourcePoint" />
            <mxPoint x="220" y="205" as="targetPoint" />
          </mxGeometry>
        </mxCell>
        <mxCell id="QrWIPEEY__fYpDPrl-_q-6" value="反馈比特 &lt;i&gt;b&lt;sub&gt;k&lt;/sub&gt;&lt;/i&gt;&lt;br&gt;（低开销）" style="endArrow=classic;html=1;rounded=0;entryX=0;entryY=0.5;entryDx=0;entryDy=0;exitX=1;exitY=0.5;exitDx=0;exitDy=0;" parent="1" source="QrWIPEEY__fYpDPrl-_q-2" target="QrWIPEEY__fYpDPrl-_q-3" edge="1">
          <mxGeometry width="50" height="50" relative="1" as="geometry">
            <mxPoint x="380" y="205" as="sourcePoint" />
            <mxPoint x="430" y="205" as="targetPoint" />
          </mxGeometry>
        </mxCell>
        <mxCell id="QrWIPEEY__fYpDPrl-_q-7" value="" style="endArrow=classic;html=1;rounded=0;entryX=0;entryY=0.5;entryDx=0;entryDy=0;exitX=1;exitY=0.5;exitDx=0;exitDy=0;" parent="1" source="QrWIPEEY__fYpDPrl-_q-3" target="QrWIPEEY__fYpDPrl-_q-4" edge="1">
          <mxGeometry width="50" height="50" relative="1" as="geometry">
            <mxPoint x="590" y="205" as="sourcePoint" />
            <mxPoint x="640" y="205" as="targetPoint" />
          </mxGeometry>
        </mxCell>
        <mxCell id="QrWIPEEY__fYpDPrl-_q-8" value="&lt;div style=&quot;text-align: left;&quot;&gt;&lt;font style=&quot;font-size: 14px;&quot;&gt;系统性能&lt;/font&gt;&lt;/div&gt;&lt;div style=&quot;text-align: left;&quot;&gt;&lt;font style=&quot;font-size: 18px;&quot;&gt;&lt;b&gt;和速率 &lt;i&gt;R&lt;/i&gt;&lt;/b&gt;&lt;/font&gt;&lt;/div&gt;" style="rounded=1;whiteSpace=wrap;html=1;fillColor=#f8cecc;strokeColor=#b85450;" parent="1" vertex="1">
          <mxGeometry x="660" y="290" width="140" height="70" as="geometry" />
        </mxCell>
        <mxCell id="QrWIPEEY__fYpDPrl-_q-9" value="" style="endArrow=classic;html=1;rounded=0;entryX=0.5;entryY=1;entryDx=0;entryDy=0;exitX=0.5;exitY=0;exitDx=0;exitDy=0;" parent="1" source="QrWIPEEY__fYpDPrl-_q-4" target="QrWIPEEY__fYpDPrl-_q-8" edge="1">
          <mxGeometry width="50" height="50" relative="1" as="geometry">
            <mxPoint x="730" y="240" as="sourcePoint" />
            <mxPoint x="730" y="290" as="targetPoint" />
          </mxGeometry>
        </mxCell>
        <mxCell id="QrWIPEEY__fYpDPrl-_q-10" value="&lt;b style=&quot;font-size: 16px;&quot;&gt;端到端联合优化&lt;/b&gt;&lt;br&gt;&lt;font style=&quot;font-size: 14px;&quot;&gt;(反向传播)&lt;/font&gt;" style="edgeStyle=orthogonalEdgeStyle;rounded=0;html=1;entryX=0.5;entryY=0;entryDx=0;entryDy=0;entryPerimeter=0;endArrow=classic;endFill=1;dashed=1;strokeWidth=2;exitX=0.5;exitY=0;exitDx=0;exitDy=0;" parent="1" source="QrWIPEEY__fYpDPrl-_q-4" target="QrWIPEEY__fYpDPrl-_q-1" edge="1">
          <mxGeometry width="100" height="100" relative="1" as="geometry">
            <mxPoint x="730" y="380" as="sourcePoint" />
            <mxPoint x="100" y="240" as="targetPoint" />
            <Array as="points">
              <mxPoint x="730" y="460" />
              <mxPoint x="730" y="410" />
              <mxPoint x="100" y="410" />
            </Array>
          </mxGeometry>
        </mxCell>
        <mxCell id="QrWIPEEY__fYpDPrl-_q-14" value="&lt;b&gt;优化目标:&lt;/b&gt; &lt;font style=&quot;font-size: 16px;&quot;&gt;max&lt;/font&gt;&lt;sub&gt;&lt;font style=&quot;font-size: 11px;&quot;&gt;&lt;i&gt;X̃, W&lt;sub&gt;enc&lt;/sub&gt;, W&lt;sub&gt;dec&lt;/sub&gt;&lt;/i&gt;&lt;/font&gt;&lt;/sub&gt;&lt;font style=&quot;font-size: 16px;&quot;&gt; E[&lt;i&gt;R&lt;/i&gt;]&lt;/font&gt;" style="text;html=1;strokeColor=none;fillColor=none;align=center;verticalAlign=middle;whiteSpace=wrap;rounded=0;" parent="1" vertex="1">
          <mxGeometry x="240" y="300" width="350" height="70" as="geometry" />
        </mxCell>
        <mxCell id="QrWIPEEY__fYpDPrl-_q-15" value="" style="endArrow=classic;html=1;rounded=0;dashed=1;strokeWidth=2;entryX=0.5;entryY=0;entryDx=0;entryDy=0;" parent="1" target="QrWIPEEY__fYpDPrl-_q-2" edge="1">
          <mxGeometry width="50" height="50" relative="1" as="geometry">
            <mxPoint x="415" y="410" as="sourcePoint" />
            <mxPoint x="310" y="240" as="targetPoint" />
            <Array as="points">
              <mxPoint x="310" y="410" />
            </Array>
          </mxGeometry>
        </mxCell>
        <mxCell id="QrWIPEEY__fYpDPrl-_q-16" value="" style="endArrow=classic;html=1;rounded=0;dashed=1;strokeWidth=2;entryX=0.5;entryY=0;entryDx=0;entryDy=0;" parent="1" target="QrWIPEEY__fYpDPrl-_q-3" edge="1">
          <mxGeometry width="50" height="50" relative="1" as="geometry">
            <mxPoint x="415" y="410" as="sourcePoint" />
            <mxPoint x="520" y="240" as="targetPoint" />
            <Array as="points">
              <mxPoint x="520" y="410" />
            </Array>
          </mxGeometry>
        </mxCell>
      </root>
    </mxGraphModel>
  </diagram>
</mxfile>
